<?xml version="1.0" encoding="UTF-8"?>
<svg id="Layer_1" data-name="Layer 1" xmlns="http://www.w3.org/2000/svg" viewBox="0 0 899.13 822.49">
  <defs>
    <style>
      .cls-1 {
        fill: #1e1e1e;
        stroke-width: 0px;
      }
    </style>
  </defs>
  <path class="cls-1" d="m877.22,329.47l-68.35-118.38c-44.08,84.79-153.14,262.03-288.85,248.6-177.88-17.61-118.54-95.22-118.54-95.22,0,0,14.63-47.44,88.6-22.78,70.81,23.6,130.32,116.58,314.46-138.1l-70.32-121.8C705,31.17,651,0,592.57,0h-286.01c-58.43,0-112.43,31.17-141.65,81.78L21.91,329.47c-29.22,50.61-29.22,112.95,0,163.56l143,247.69c29.22,50.61,83.21,81.78,141.65,81.78h286.01c58.43,0,112.43-31.17,141.65-81.78l143-247.69c29.22-50.61,29.22-112.95,0-163.56Zm-269.98,239.22c-8.05,9.15-17.01,17.57-26.85,25.24-35.78,27.89-80.48,41.82-134.14,41.82-42.09,0-79.43-9.33-112.04-28.01-32.62-18.66-58.13-44.97-76.54-78.9-18.42-33.93-27.62-73.5-27.62-118.75s9.2-84.82,27.62-118.75c18.41-33.93,43.91-60.22,76.54-78.9,32.61-18.67,69.95-28.01,112.04-28.01,54.17,0,99.02,13.55,134.53,40.64,10.71,8.17,20.35,17.34,28.93,27.49,28.87,34.18,4.48,86.52-40.26,86.52h-4.03c-17.33,0-33.78-8.39-43.37-22.83-5.65-8.51-12.64-15.76-20.97-21.75-14.99-10.78-33.53-16.18-55.63-16.18-31.56,0-56.55,11.44-74.96,34.32-18.42,22.88-27.62,55.37-27.62,97.44s9.2,73.77,27.62,96.66c18.41,22.88,43.4,34.32,74.96,34.32,34.77,0,60.16-12.09,76.16-36.28,9.65-14.59,25.67-23.69,43.17-23.69h3.12c45.4,0,69.32,53.5,39.33,87.59Z"/>
</svg>