<?xml version="1.0" encoding="UTF-8"?>
<svg id="Layer_1" data-name="Layer 1" xmlns="http://www.w3.org/2000/svg" xmlns:xlink="http://www.w3.org/1999/xlink" viewBox="0 0 548.51 502.61">
  <defs>
    <style>
      .cls-1 {
        fill: url(#linear-gradient);
        stroke-width: 0px;
      }

      .cls-2 {
        fill: #191919;
        font-family: Poppins-Medium, Poppins;
        font-size: 120px;
        font-weight: 500;
        letter-spacing: -.07em;
      }
    </style>
    <linearGradient id="linear-gradient" x1="103.72" y1="156" x2="444.79" y2="156" gradientUnits="userSpaceOnUse">
      <stop offset="0" stop-color="#009ff5"/>
      <stop offset="1" stop-color="#0a6af9"/>
    </linearGradient>
  </defs>
  <text class="cls-2" transform="translate(0 432.77)"><tspan x="0" y="0">Confiance</tspan></text>
  <path class="cls-1" d="m436.47,124.98l-25.93-44.91c-16.72,32.16-58.09,99.4-109.57,94.3-67.48-6.68-44.97-36.12-44.97-36.12,0,0,5.55-18,33.61-8.64,26.86,8.95,49.43,44.22,119.28-52.38l-26.68-46.2c-11.08-19.2-31.56-31.02-53.73-31.02h-108.49c-22.17,0-42.65,11.83-53.73,31.02l-54.24,93.95c-11.08,19.2-11.08,42.85,0,62.04l54.24,93.95c11.08,19.2,31.56,31.02,53.73,31.02h108.49c22.17,0,42.65-11.83,53.73-31.02l54.24-93.95c11.08-19.2,11.08-42.85,0-62.04Zm-102.41,90.74c-3.06,3.47-6.45,6.66-10.19,9.58-13.57,10.58-30.53,15.86-50.88,15.86-15.97,0-30.13-3.54-42.5-10.63-12.37-7.08-22.05-17.06-29.03-29.93-6.99-12.87-10.48-27.88-10.48-45.05s3.49-32.17,10.48-45.04c6.98-12.87,16.66-22.84,29.03-29.93,12.37-7.08,26.53-10.63,42.5-10.63,20.55,0,37.56,5.14,51.03,15.41,4.06,3.1,7.72,6.58,10.97,10.43,10.95,12.96,1.7,32.82-15.27,32.82h-1.53c-6.58,0-12.81-3.18-16.45-8.66-2.14-3.23-4.79-5.98-7.95-8.25-5.69-4.09-12.72-6.14-21.1-6.14-11.97,0-21.45,4.34-28.43,13.02-6.99,8.68-10.48,21-10.48,36.96s3.49,27.98,10.48,36.66c6.98,8.68,16.46,13.02,28.43,13.02,13.19,0,22.82-4.59,28.89-13.76,3.66-5.53,9.74-8.99,16.37-8.99h1.18c17.22,0,26.3,20.29,14.92,33.22Z"/>
</svg>